<svg xmlns="http://www.w3.org/2000/svg" version="1.1" xmlns:xlink="http://www.w3.org/1999/xlink" xmlns:svgjs="http://svgjs.dev/svgjs" width="1440" height="850" preserveAspectRatio="none" viewBox="0 0 1440 850"><g mask="url(&quot;#SvgjsMask1210&quot;)" fill="none"><rect width="1440" height="850" x="0" y="0" fill="url(&quot;#SvgjsLinearGradient1211&quot;)"></rect><path d="M1440 0L1425.27 0L1440 55.68z" fill="rgba(255, 255, 255, .1)"></path><path d="M1425.27 0L1440 55.68L1440 434.17L1396.74 0z" fill="rgba(255, 255, 255, .075)"></path><path d="M1396.74 0L1440 434.17L1440 437.68L631.0600000000001 0z" fill="rgba(255, 255, 255, .05)"></path><path d="M631.0600000000001 0L1440 437.68L1440 535.59L344.07000000000005 0z" fill="rgba(255, 255, 255, .025)"></path><path d="M0 850L704.89 850L0 735.69z" fill="rgba(0, 0, 0, .1)"></path><path d="M0 735.69L704.89 850L977.55 850L0 613.49z" fill="rgba(0, 0, 0, .075)"></path><path d="M0 613.49L977.55 850L991.5899999999999 850L0 314.61z" fill="rgba(0, 0, 0, .05)"></path><path d="M0 314.61L991.5899999999999 850L1234.4399999999998 850L0 107.46000000000001z" fill="rgba(0, 0, 0, .025)"></path></g><defs><mask id="SvgjsMask1210"><rect width="1440" height="850" fill="#ffffff"></rect></mask><linearGradient x1="10.24%" y1="-17.35%" x2="89.76%" y2="117.35%" gradientUnits="userSpaceOnUse" id="SvgjsLinearGradient1211"><stop stop-color="rgba(14, 42, 71, 1)" offset="0.21"></stop><stop stop-color="rgba(223, 65, 65, 1)" offset="1"></stop></linearGradient></defs></svg>